<svg width="32" height="32" viewBox="0 0 32 32" fill="none" xmlns="http://www.w3.org/2000/svg">
  <!-- 배경 원형 그라데이션 -->
  <defs>
    <linearGradient id="bgGradient" x1="0%" y1="0%" x2="100%" y2="100%">
      <stop offset="0%" style="stop-color:#2563eb;stop-opacity:1" />
      <stop offset="50%" style="stop-color:#4f46e5;stop-opacity:1" />
      <stop offset="100%" style="stop-color:#7c3aed;stop-opacity:1" />
    </linearGradient>
  </defs>
  
  <!-- 배경 -->
  <rect width="32" height="32" rx="8" fill="url(#bgGradient)"/>
  
  <!-- 계산기 아이콘 -->
  <g transform="translate(8, 6)">
    <!-- 계산기 본체 -->
    <rect x="2" y="2" width="12" height="16" rx="1" fill="white" opacity="0.95"/>
    <!-- 화면 -->
    <rect x="3" y="3" width="10" height="4" rx="0.5" fill="#1e293b"/>
    <!-- 버튼 그리드 -->
    <g fill="#64748b">
      <!-- 첫 번째 줄 -->
      <circle cx="5" cy="9" r="0.8"/>
      <circle cx="7.5" cy="9" r="0.8"/>
      <circle cx="10" cy="9" r="0.8"/>
      <circle cx="12.5" cy="9" r="0.8"/>
      <!-- 두 번째 줄 -->
      <circle cx="5" cy="11.5" r="0.8"/>
      <circle cx="7.5" cy="11.5" r="0.8"/>
      <circle cx="10" cy="11.5" r="0.8"/>
      <circle cx="12.5" cy="11.5" r="0.8"/>
      <!-- 세 번째 줄 -->
      <circle cx="5" cy="14" r="0.8"/>
      <circle cx="7.5" cy="14" r="0.8"/>
      <circle cx="10" cy="14" r="0.8"/>
      <circle cx="12.5" cy="14" r="0.8"/>
    </g>
  </g>
  
  <!-- 상단 우측 트렌드 아이콘 (작은 장식) -->
  <circle cx="26" cy="6" r="4" fill="#22c55e"/>
  <path d="M 24 6 L 25.5 7.5 L 28 5" stroke="white" stroke-width="1.5" stroke-linecap="round" stroke-linejoin="round" fill="none"/>
</svg>

